<svg xmlns="http://www.w3.org/2000/svg" xmlns:xlink="http://www.w3.org/1999/xlink" width="64" zoomAndPan="magnify" viewBox="0 0 48 48" height="64" preserveAspectRatio="xMidYMid meet" version="1.0"><defs><clipPath id="13cbf7e7de"><path d="M 8.019531 7 L 24.917969 7 L 24.917969 23.148438 L 8.019531 23.148438 Z M 8.019531 7 " clip-rule="nonzero"/></clipPath><clipPath id="d7d9cc9b22"><path d="M 24 23.511719 L 40.898438 23.511719 L 40.898438 39.671875 L 24 39.671875 Z M 24 23.511719 " clip-rule="nonzero"/></clipPath><clipPath id="94100069ad"><path d="M 26.113281 9.046875 L 38.601562 9.046875 L 38.601562 21.539062 L 26.113281 21.539062 Z M 26.113281 9.046875 " clip-rule="nonzero"/></clipPath><clipPath id="d8055d7111"><path d="M 27 9.046875 L 38 9.046875 L 38 21 L 27 21 Z M 27 9.046875 " clip-rule="nonzero"/></clipPath><clipPath id="8ac650fb09"><path d="M 12 27.292969 L 20.707031 27.292969 L 20.707031 36.109375 L 12 36.109375 Z M 12 27.292969 " clip-rule="nonzero"/></clipPath><clipPath id="2e5f96106f"><path d="M 12 27.292969 L 20.707031 27.292969 L 20.707031 36 L 12 36 Z M 12 27.292969 " clip-rule="nonzero"/></clipPath><clipPath id="5d2f755629"><path d="M 7.195312 36.253906 L 11.601562 36.253906 L 11.601562 40.664062 L 7.195312 40.664062 Z M 7.195312 36.253906 " clip-rule="nonzero"/></clipPath><clipPath id="65f839c397"><path d="M 36.441406 6.984375 L 38.644531 6.984375 L 38.644531 9.1875 L 36.441406 9.1875 Z M 36.441406 6.984375 " clip-rule="nonzero"/></clipPath><clipPath id="d9c7c70ae7"><path d="M 36.441406 7 L 38.644531 7 L 38.644531 9.1875 L 36.441406 9.1875 Z M 36.441406 7 " clip-rule="nonzero"/></clipPath></defs><g clip-path="url(#13cbf7e7de)"><path fill="#ffde59" d="M 24.242188 12.175781 C 23.125 9.140625 19.949219 6.984375 16.710938 7.054688 C 16.425781 7.0625 16.140625 7.085938 15.851562 7.125 C 14.507812 7.253906 13.140625 7.769531 11.96875 8.605469 C 10.597656 9.585938 9.527344 10.96875 8.964844 12.5 C 8.375 14.109375 8.34375 15.929688 8.875 17.632812 C 9.339844 19.121094 10.207031 20.394531 11.320312 21.34375 C 12.015625 21.941406 12.800781 22.402344 13.640625 22.703125 C 14.425781 22.992188 15.261719 23.148438 16.121094 23.148438 C 16.179688 23.148438 16.238281 23.148438 16.296875 23.144531 C 17.882812 23.101562 19.480469 22.582031 20.789062 21.667969 C 20.972656 21.539062 21.152344 21.398438 21.328125 21.25 C 22.566406 20.390625 23.5 19.199219 24.070312 17.855469 C 24.226562 17.492188 24.351562 17.117188 24.445312 16.738281 C 24.832031 15.253906 24.789062 13.660156 24.242188 12.175781 Z M 21.226562 8.792969 C 22.476562 9.835938 23.367188 11.382812 23.734375 13.148438 C 23.875 13.828125 23.933594 14.507812 23.914062 15.175781 C 23.898438 14.863281 23.859375 14.546875 23.796875 14.230469 C 23.445312 12.445312 22.535156 10.648438 21.292969 9.296875 C 20.601562 8.542969 19.820312 7.976562 18.980469 7.601562 C 19.78125 7.828125 20.550781 8.230469 21.226562 8.792969 Z M 9.109375 15.878906 C 9.144531 16.433594 9.246094 16.976562 9.414062 17.503906 C 9.003906 16.386719 8.933594 15.203125 9.214844 14.082031 C 9.214844 14.152344 9.207031 14.214844 9.207031 14.285156 C 9.109375 14.808594 9.074219 15.34375 9.109375 15.878906 Z M 9.34375 15.984375 C 9.796875 18.269531 11.277344 20.332031 13.386719 21.375 C 16.164062 22.75 19.828125 22.117188 21.90625 19.90625 C 22.949219 18.800781 23.585938 17.308594 23.699219 15.726562 C 23.625 18.144531 22.101562 20.382812 19.863281 21.5 C 19.035156 21.898438 18.132812 22.148438 17.203125 22.234375 C 15.398438 22.386719 13.601562 21.886719 12.152344 20.914062 C 10.570312 19.722656 9.511719 17.925781 9.34375 15.984375 Z M 15.484375 8.398438 C 15.96875 8.25 16.484375 8.117188 17.027344 8.003906 C 17.953125 8.140625 18.871094 8.449219 19.710938 8.925781 C 22.09375 10.292969 23.625 12.855469 23.484375 15.566406 C 23.398438 17.242188 22.695312 18.84375 21.554688 19.953125 C 20.519531 20.960938 19.097656 21.628906 17.546875 21.828125 C 15.902344 22.039062 14.265625 21.707031 12.933594 20.886719 C 11.652344 20.09375 10.609375 18.847656 10.003906 17.382812 C 9.945312 17.25 9.894531 17.113281 9.851562 16.980469 C 9.855469 16.988281 9.855469 16.992188 9.863281 17 C 10.515625 18.375 11.605469 19.488281 12.933594 20.128906 L 13.039062 20.171875 L 13.121094 19.992188 L 13.03125 19.945312 C 10.839844 18.882812 9.476562 16.582031 9.445312 14.261719 C 9.445312 14.242188 9.445312 14.226562 9.449219 14.207031 C 9.714844 12.917969 10.386719 11.707031 11.4375 10.660156 C 11.648438 10.449219 11.875 10.238281 12.121094 10.023438 C 12.261719 9.917969 12.410156 9.820312 12.5625 9.722656 C 12.621094 9.679688 12.6875 9.640625 12.75 9.605469 C 13.65625 9.0625 14.617188 8.671875 15.484375 8.398438 Z M 13.308594 9.066406 C 13.382812 9.007812 13.460938 8.953125 13.535156 8.898438 C 14.046875 8.523438 14.511719 8.230469 14.957031 8.003906 C 15.425781 7.9375 15.902344 7.914062 16.378906 7.941406 C 16.085938 8.015625 15.769531 8.105469 15.4375 8.207031 C 14.664062 8.445312 13.957031 8.730469 13.308594 9.066406 Z M 17.597656 7.386719 C 19.128906 7.664062 20.582031 8.632812 21.703125 10.132812 C 21.855469 10.339844 22.003906 10.550781 22.144531 10.769531 C 22.027344 10.621094 21.902344 10.472656 21.777344 10.332031 C 21.203125 9.695312 20.53125 9.167969 19.8125 8.757812 C 19.136719 8.371094 18.394531 8.078125 17.601562 7.898438 C 17.589844 7.894531 17.578125 7.890625 17.566406 7.890625 L 17.601562 7.789062 L 17.503906 7.695312 L 17.445312 7.707031 C 17.3125 7.734375 17.171875 7.761719 17.023438 7.789062 C 16.53125 7.722656 16.042969 7.703125 15.5625 7.734375 C 15.679688 7.691406 15.792969 7.648438 15.910156 7.613281 C 16.453125 7.445312 17.023438 7.371094 17.597656 7.386719 Z M 16.023438 7.3125 C 16.109375 7.304688 16.195312 7.300781 16.28125 7.296875 C 16.09375 7.339844 15.90625 7.386719 15.722656 7.449219 C 15.429688 7.546875 15.136719 7.667969 14.835938 7.820312 C 14.765625 7.832031 14.703125 7.84375 14.636719 7.859375 C 13.894531 8.003906 13.183594 8.265625 12.527344 8.65625 C 12.460938 8.695312 12.398438 8.734375 12.335938 8.777344 C 13.421875 7.976562 14.707031 7.46875 16.023438 7.3125 Z M 12.578125 8.882812 C 13.097656 8.5625 13.652344 8.324219 14.230469 8.160156 C 13.910156 8.355469 13.574219 8.589844 13.214844 8.859375 C 12.8125 9.160156 12.347656 9.523438 11.878906 9.941406 C 11.140625 10.472656 10.464844 11.125 9.933594 11.917969 C 9.992188 11.765625 10.058594 11.609375 10.128906 11.460938 C 10.679688 10.425781 11.527344 9.527344 12.578125 8.882812 Z M 16.011719 22.933594 C 15.21875 22.925781 14.4375 22.777344 13.695312 22.507812 C 12.882812 22.207031 12.128906 21.761719 11.460938 21.199219 C 11.410156 21.15625 11.359375 21.109375 11.308594 21.066406 C 8.824219 18.816406 8.023438 15.128906 9.367188 12.105469 C 9.746094 11.253906 10.273438 10.480469 10.90625 9.820312 C 10.476562 10.339844 10.117188 10.914062 9.84375 11.53125 C 9.710938 11.796875 9.601562 12.066406 9.511719 12.34375 C 9.4375 12.566406 9.378906 12.796875 9.332031 13.027344 C 9.183594 13.367188 9.0625 13.734375 8.972656 14.121094 C 8.265625 17.066406 10.019531 19.882812 12.347656 21.328125 C 12.863281 21.667969 13.414062 21.941406 13.988281 22.152344 C 14.425781 22.3125 14.878906 22.4375 15.347656 22.515625 C 15.5 22.542969 15.65625 22.5625 15.808594 22.582031 C 16.976562 22.722656 18.175781 22.617188 19.308594 22.246094 C 18.265625 22.703125 17.140625 22.945312 16.011719 22.933594 Z M 21.164062 21.09375 C 21.011719 21.199219 20.859375 21.296875 20.699219 21.386719 C 19.820312 21.902344 18.816406 22.234375 17.78125 22.367188 C 17.929688 22.347656 18.074219 22.320312 18.226562 22.285156 C 18.847656 22.152344 19.441406 21.9375 19.992188 21.660156 C 20.847656 21.246094 21.617188 20.671875 22.246094 19.964844 C 21.921875 20.378906 21.5625 20.757812 21.164062 21.09375 Z M 24.21875 16.824219 C 24.140625 17.097656 24.050781 17.367188 23.945312 17.632812 C 23.90625 17.730469 23.863281 17.828125 23.816406 17.925781 C 23.546875 18.519531 23.195312 19.078125 22.789062 19.585938 C 23.195312 18.960938 23.519531 18.273438 23.746094 17.542969 C 24.507812 15.089844 24.167969 11.824219 22.316406 9.578125 C 24.183594 11.488281 24.914062 14.28125 24.21875 16.824219 Z M 24.21875 16.824219 " fill-opacity="1" fill-rule="nonzero"/></g><path fill="#ffde59" d="M 23.976562 15.097656 C 23.976562 15.570312 23.929688 16.039062 23.835938 16.507812 C 23.742188 16.972656 23.601562 17.421875 23.417969 17.859375 C 23.230469 18.296875 23.003906 18.714844 22.734375 19.109375 C 22.464844 19.503906 22.160156 19.867188 21.816406 20.203125 C 21.476562 20.539062 21.101562 20.839844 20.699219 21.101562 C 20.296875 21.363281 19.871094 21.585938 19.425781 21.769531 C 18.976562 21.949219 18.515625 22.085938 18.042969 22.179688 C 17.566406 22.273438 17.085938 22.320312 16.601562 22.320312 C 16.117188 22.320312 15.640625 22.273438 15.164062 22.179688 C 14.6875 22.085938 14.226562 21.949219 13.78125 21.769531 C 13.332031 21.585938 12.90625 21.363281 12.503906 21.101562 C 12.101562 20.839844 11.730469 20.539062 11.386719 20.203125 C 11.046875 19.867188 10.738281 19.503906 10.46875 19.109375 C 10.203125 18.714844 9.972656 18.296875 9.789062 17.859375 C 9.601562 17.421875 9.464844 16.972656 9.367188 16.507812 C 9.273438 16.039062 9.226562 15.570312 9.226562 15.097656 C 9.226562 14.621094 9.273438 14.152344 9.367188 13.6875 C 9.464844 13.222656 9.601562 12.773438 9.789062 12.332031 C 9.972656 11.894531 10.203125 11.480469 10.46875 11.085938 C 10.738281 10.691406 11.046875 10.324219 11.386719 9.992188 C 11.730469 9.65625 12.101562 9.355469 12.503906 9.09375 C 12.90625 8.828125 13.332031 8.605469 13.78125 8.425781 C 14.226562 8.242188 14.6875 8.105469 15.164062 8.015625 C 15.640625 7.921875 16.117188 7.875 16.601562 7.875 C 17.085938 7.875 17.566406 7.921875 18.042969 8.015625 C 18.515625 8.105469 18.976562 8.242188 19.425781 8.425781 C 19.871094 8.605469 20.296875 8.828125 20.699219 9.09375 C 21.101562 9.355469 21.476562 9.65625 21.816406 9.992188 C 22.160156 10.324219 22.464844 10.691406 22.734375 11.085938 C 23.003906 11.480469 23.230469 11.894531 23.417969 12.332031 C 23.601562 12.773438 23.742188 13.222656 23.835938 13.6875 C 23.929688 14.152344 23.976562 14.621094 23.976562 15.097656 Z M 23.976562 15.097656 " fill-opacity="1" fill-rule="nonzero"/><g clip-path="url(#d7d9cc9b22)"><path fill="#6985eb" d="M 40.222656 28.703125 C 39.105469 25.664062 35.925781 23.511719 32.691406 23.582031 C 32.40625 23.585938 32.117188 23.613281 31.832031 23.652344 C 30.484375 23.78125 29.121094 24.292969 27.949219 25.132812 C 26.574219 26.113281 25.507812 27.496094 24.945312 29.027344 C 24.355469 30.636719 24.324219 32.457031 24.855469 34.15625 C 25.320312 35.648438 26.183594 36.921875 27.300781 37.871094 C 27.996094 38.46875 28.78125 38.925781 29.621094 39.230469 C 30.40625 39.519531 31.242188 39.671875 32.097656 39.671875 C 32.15625 39.671875 32.21875 39.671875 32.277344 39.671875 C 33.863281 39.628906 35.460938 39.105469 36.769531 38.191406 C 36.953125 38.0625 37.132812 37.925781 37.308594 37.777344 C 38.542969 36.917969 39.480469 35.722656 40.046875 34.382812 C 40.207031 34.019531 40.332031 33.644531 40.425781 33.265625 C 40.8125 31.78125 40.769531 30.1875 40.222656 28.703125 Z M 37.207031 25.316406 C 38.453125 26.363281 39.34375 27.90625 39.714844 29.675781 C 39.855469 30.355469 39.914062 31.035156 39.894531 31.703125 C 39.875 31.390625 39.835938 31.074219 39.773438 30.757812 C 39.425781 28.96875 38.515625 27.171875 37.273438 25.824219 C 36.578125 25.070312 35.796875 24.5 34.960938 24.128906 C 35.761719 24.355469 36.53125 24.757812 37.207031 25.316406 Z M 25.089844 32.40625 C 25.121094 32.957031 25.226562 33.503906 25.390625 34.027344 C 24.980469 32.910156 24.914062 31.726562 25.195312 30.609375 C 25.191406 30.675781 25.1875 30.742188 25.1875 30.8125 C 25.089844 31.335938 25.054688 31.867188 25.089844 32.40625 Z M 25.324219 32.507812 C 25.773438 34.792969 27.257812 36.859375 29.367188 37.902344 C 32.144531 39.273438 35.804688 38.644531 37.886719 36.433594 C 38.929688 35.328125 39.566406 33.832031 39.679688 32.253906 C 39.605469 34.671875 38.082031 36.910156 35.84375 38.027344 C 35.015625 38.425781 34.113281 38.675781 33.179688 38.761719 C 31.375 38.910156 29.582031 38.414062 28.128906 37.441406 C 26.550781 36.246094 25.492188 34.453125 25.324219 32.507812 Z M 31.464844 24.925781 C 31.949219 24.777344 32.464844 24.644531 33.007812 24.53125 C 33.933594 24.667969 34.851562 24.976562 35.691406 25.453125 C 38.070312 26.820312 39.605469 29.378906 39.464844 32.089844 C 39.375 33.769531 38.671875 35.371094 37.53125 36.480469 C 36.496094 37.488281 35.074219 38.152344 33.527344 38.355469 C 31.882812 38.566406 30.242188 38.234375 28.914062 37.414062 C 27.632812 36.617188 26.589844 35.375 25.984375 33.90625 C 25.925781 33.777344 25.875 33.640625 25.832031 33.507812 C 25.832031 33.515625 25.835938 33.519531 25.84375 33.527344 C 26.496094 34.902344 27.585938 36.011719 28.910156 36.65625 L 29.019531 36.699219 L 29.101562 36.515625 L 29.011719 36.472656 C 26.820312 35.410156 25.453125 33.105469 25.425781 30.785156 C 25.425781 30.769531 25.425781 30.753906 25.429688 30.734375 C 25.691406 29.445312 26.367188 28.234375 27.417969 27.1875 C 27.628906 26.976562 27.855469 26.761719 28.097656 26.546875 C 28.242188 26.445312 28.390625 26.34375 28.539062 26.25 C 28.601562 26.207031 28.667969 26.167969 28.730469 26.128906 C 29.636719 25.589844 30.597656 25.199219 31.464844 24.925781 Z M 29.289062 25.589844 C 29.363281 25.535156 29.441406 25.476562 29.515625 25.421875 C 30.023438 25.050781 30.492188 24.757812 30.9375 24.53125 C 31.40625 24.460938 31.882812 24.441406 32.359375 24.46875 C 32.066406 24.542969 31.75 24.628906 31.417969 24.734375 C 30.644531 24.972656 29.933594 25.253906 29.289062 25.589844 Z M 33.578125 23.914062 C 35.109375 24.191406 36.5625 25.160156 37.679688 26.660156 C 37.835938 26.863281 37.984375 27.078125 38.121094 27.292969 C 38.007812 27.144531 37.882812 27 37.757812 26.859375 C 37.179688 26.222656 36.511719 25.695312 35.792969 25.285156 C 35.113281 24.898438 34.371094 24.601562 33.582031 24.425781 C 33.570312 24.421875 33.558594 24.417969 33.546875 24.414062 L 33.582031 24.316406 L 33.480469 24.222656 L 33.425781 24.234375 C 33.292969 24.257812 33.152344 24.285156 33 24.316406 C 32.511719 24.246094 32.023438 24.226562 31.542969 24.261719 C 31.65625 24.21875 31.773438 24.175781 31.886719 24.140625 C 32.433594 23.972656 33.003906 23.898438 33.578125 23.914062 Z M 32.003906 23.835938 C 32.089844 23.832031 32.175781 23.828125 32.261719 23.824219 C 32.074219 23.863281 31.886719 23.914062 31.703125 23.976562 C 31.40625 24.074219 31.117188 24.195312 30.816406 24.347656 C 30.746094 24.359375 30.683594 24.371094 30.613281 24.386719 C 29.875 24.527344 29.160156 24.792969 28.507812 25.183594 C 28.441406 25.222656 28.378906 25.261719 28.316406 25.300781 C 29.402344 24.5 30.683594 23.996094 32.003906 23.835938 Z M 28.558594 25.410156 C 29.078125 25.089844 29.632812 24.851562 30.210938 24.6875 C 29.890625 24.882812 29.550781 25.117188 29.191406 25.386719 C 28.792969 25.6875 28.328125 26.050781 27.859375 26.464844 C 27.121094 27 26.445312 27.652344 25.914062 28.445312 C 25.972656 28.289062 26.039062 28.136719 26.109375 27.988281 C 26.660156 26.949219 27.507812 26.054688 28.558594 25.410156 Z M 31.992188 39.457031 C 31.199219 39.449219 30.417969 39.304688 29.675781 39.035156 C 28.863281 38.734375 28.109375 38.289062 27.441406 37.726562 C 27.390625 37.679688 27.339844 37.636719 27.289062 37.59375 C 24.800781 35.339844 24.003906 31.65625 25.347656 28.632812 C 25.726562 27.777344 26.253906 27.007812 26.886719 26.347656 C 26.453125 26.863281 26.09375 27.441406 25.824219 28.058594 C 25.691406 28.324219 25.582031 28.59375 25.492188 28.867188 C 25.417969 29.089844 25.359375 29.324219 25.3125 29.554688 C 25.164062 29.894531 25.042969 30.261719 24.949219 30.644531 C 24.246094 33.589844 26 36.410156 28.328125 37.855469 C 28.839844 38.191406 29.390625 38.46875 29.96875 38.675781 C 30.402344 38.839844 30.859375 38.964844 31.328125 39.042969 C 31.480469 39.070312 31.636719 39.089844 31.789062 39.109375 C 32.957031 39.25 34.15625 39.140625 35.289062 38.773438 C 34.246094 39.230469 33.121094 39.46875 31.992188 39.457031 Z M 37.144531 37.621094 C 36.992188 37.726562 36.839844 37.824219 36.679688 37.914062 C 35.796875 38.429688 34.792969 38.761719 33.761719 38.894531 C 33.910156 38.871094 34.054688 38.84375 34.203125 38.8125 C 34.828125 38.679688 35.421875 38.464844 35.972656 38.1875 C 36.828125 37.773438 37.597656 37.199219 38.222656 36.488281 C 37.902344 36.90625 37.539062 37.285156 37.144531 37.621094 Z M 40.195312 33.351562 C 40.121094 33.625 40.03125 33.894531 39.925781 34.15625 C 39.886719 34.257812 39.84375 34.355469 39.796875 34.453125 C 39.523438 35.046875 39.175781 35.605469 38.769531 36.113281 C 39.175781 35.488281 39.5 34.800781 39.726562 34.070312 C 40.488281 31.617188 40.144531 28.351562 38.296875 26.105469 C 40.164062 28.011719 40.894531 30.808594 40.195312 33.351562 Z M 40.195312 33.351562 " fill-opacity="1" fill-rule="nonzero"/></g><path fill="#6985eb" d="M 39.957031 31.625 C 39.957031 32.097656 39.910156 32.566406 39.816406 33.03125 C 39.722656 33.496094 39.582031 33.949219 39.398438 34.386719 C 39.210938 34.824219 38.984375 35.242188 38.714844 35.636719 C 38.445312 36.03125 38.140625 36.394531 37.796875 36.730469 C 37.457031 37.066406 37.082031 37.363281 36.679688 37.628906 C 36.277344 37.890625 35.851562 38.113281 35.40625 38.296875 C 34.957031 38.476562 34.496094 38.613281 34.019531 38.707031 C 33.546875 38.796875 33.066406 38.84375 32.582031 38.84375 C 32.097656 38.84375 31.617188 38.796875 31.144531 38.707031 C 30.667969 38.613281 30.207031 38.476562 29.761719 38.296875 C 29.3125 38.113281 28.886719 37.890625 28.484375 37.628906 C 28.082031 37.363281 27.710938 37.066406 27.367188 36.730469 C 27.023438 36.394531 26.71875 36.03125 26.449219 35.636719 C 26.179688 35.242188 25.953125 34.824219 25.769531 34.386719 C 25.582031 33.949219 25.441406 33.496094 25.347656 33.03125 C 25.253906 32.566406 25.207031 32.097656 25.207031 31.625 C 25.207031 31.148438 25.253906 30.679688 25.347656 30.214844 C 25.441406 29.75 25.582031 29.296875 25.769531 28.859375 C 25.953125 28.421875 26.179688 28.003906 26.449219 27.613281 C 26.71875 27.21875 27.023438 26.851562 27.367188 26.515625 C 27.710938 26.183594 28.082031 25.882812 28.484375 25.617188 C 28.886719 25.355469 29.3125 25.132812 29.761719 24.953125 C 30.207031 24.769531 30.667969 24.632812 31.144531 24.539062 C 31.617188 24.449219 32.097656 24.402344 32.582031 24.402344 C 33.066406 24.402344 33.546875 24.449219 34.019531 24.539062 C 34.496094 24.632812 34.957031 24.769531 35.40625 24.953125 C 35.851562 25.132812 36.277344 25.355469 36.679688 25.617188 C 37.082031 25.882812 37.457031 26.183594 37.796875 26.515625 C 38.140625 26.851562 38.445312 27.21875 38.714844 27.613281 C 38.984375 28.003906 39.210938 28.421875 39.398438 28.859375 C 39.582031 29.296875 39.722656 29.75 39.816406 30.214844 C 39.910156 30.679688 39.957031 31.148438 39.957031 31.625 Z M 39.957031 31.625 " fill-opacity="1" fill-rule="nonzero"/><g clip-path="url(#94100069ad)"><path fill="#cf733a" d="M 38.105469 13.0625 C 37.277344 10.714844 34.929688 9.046875 32.535156 9.101562 C 32.324219 9.105469 32.113281 9.125 31.902344 9.15625 C 30.90625 9.257812 29.894531 9.652344 29.03125 10.300781 C 28.015625 11.058594 27.222656 12.128906 26.808594 13.3125 C 26.371094 14.554688 26.347656 15.960938 26.742188 17.277344 C 27.085938 18.425781 27.726562 19.410156 28.550781 20.144531 C 29.0625 20.605469 29.644531 20.960938 30.265625 21.195312 C 30.847656 21.417969 31.464844 21.539062 32.097656 21.539062 C 32.140625 21.539062 32.1875 21.539062 32.230469 21.535156 C 33.402344 21.503906 34.585938 21.097656 35.550781 20.394531 C 35.6875 20.292969 35.820312 20.1875 35.949219 20.070312 C 36.863281 19.410156 37.554688 18.484375 37.976562 17.449219 C 38.09375 17.167969 38.1875 16.878906 38.253906 16.585938 C 38.542969 15.4375 38.507812 14.207031 38.105469 13.0625 Z M 35.875 10.445312 C 36.796875 11.25 37.457031 12.445312 37.730469 13.8125 C 37.832031 14.335938 37.875 14.863281 37.863281 15.378906 C 37.851562 15.136719 37.820312 14.890625 37.773438 14.648438 C 37.515625 13.265625 36.84375 11.878906 35.925781 10.835938 C 35.410156 10.253906 34.832031 9.8125 34.214844 9.527344 C 34.808594 9.699219 35.375 10.011719 35.875 10.445312 Z M 26.914062 15.921875 C 26.941406 16.347656 27.015625 16.769531 27.140625 17.175781 C 26.835938 16.3125 26.785156 15.398438 26.992188 14.53125 C 26.992188 14.585938 26.988281 14.636719 26.988281 14.691406 C 26.914062 15.09375 26.890625 15.507812 26.914062 15.921875 Z M 27.089844 16 C 27.421875 17.765625 28.519531 19.363281 30.078125 20.167969 C 32.132812 21.230469 34.839844 20.742188 36.378906 19.035156 C 37.148438 18.179688 37.617188 17.023438 37.703125 15.804688 C 37.648438 17.671875 36.519531 19.402344 34.867188 20.265625 C 34.257812 20.570312 33.585938 20.765625 32.898438 20.832031 C 31.5625 20.949219 30.234375 20.5625 29.164062 19.8125 C 27.996094 18.890625 27.210938 17.503906 27.089844 16 Z M 31.628906 10.140625 C 31.988281 10.027344 32.367188 9.925781 32.769531 9.835938 C 33.457031 9.941406 34.132812 10.179688 34.753906 10.550781 C 36.515625 11.605469 37.648438 13.582031 37.542969 15.679688 C 37.480469 16.976562 36.960938 18.214844 36.117188 19.070312 C 35.351562 19.847656 34.300781 20.363281 33.152344 20.519531 C 31.9375 20.683594 30.726562 20.425781 29.742188 19.792969 C 28.796875 19.175781 28.023438 18.214844 27.574219 17.082031 C 27.535156 16.980469 27.496094 16.875 27.464844 16.773438 C 27.464844 16.777344 27.46875 16.78125 27.472656 16.789062 C 27.953125 17.851562 28.761719 18.710938 29.742188 19.207031 L 29.820312 19.238281 L 29.878906 19.097656 L 29.8125 19.0625 C 28.195312 18.242188 27.183594 16.464844 27.164062 14.671875 C 27.164062 14.65625 27.164062 14.644531 27.167969 14.628906 C 27.363281 13.632812 27.859375 12.695312 28.636719 11.890625 C 28.792969 11.726562 28.960938 11.5625 29.140625 11.394531 C 29.246094 11.316406 29.355469 11.238281 29.46875 11.164062 C 29.511719 11.132812 29.558594 11.101562 29.605469 11.074219 C 30.277344 10.652344 30.988281 10.355469 31.628906 10.140625 Z M 30.019531 10.65625 C 30.074219 10.613281 30.132812 10.566406 30.1875 10.527344 C 30.5625 10.238281 30.910156 10.011719 31.238281 9.835938 C 31.585938 9.785156 31.9375 9.765625 32.292969 9.789062 C 32.074219 9.84375 31.839844 9.914062 31.59375 9.992188 C 31.023438 10.175781 30.496094 10.394531 30.019531 10.65625 Z M 33.191406 9.359375 C 34.324219 9.574219 35.398438 10.320312 36.226562 11.480469 C 36.339844 11.640625 36.449219 11.804688 36.550781 11.972656 C 36.46875 11.855469 36.375 11.746094 36.28125 11.636719 C 35.855469 11.140625 35.363281 10.734375 34.828125 10.417969 C 34.328125 10.121094 33.78125 9.890625 33.195312 9.753906 C 33.183594 9.75 33.175781 9.75 33.167969 9.746094 L 33.195312 9.671875 L 33.121094 9.597656 L 33.078125 9.605469 C 32.980469 9.625 32.878906 9.648438 32.765625 9.671875 C 32.402344 9.617188 32.042969 9.601562 31.6875 9.628906 C 31.773438 9.59375 31.855469 9.5625 31.941406 9.535156 C 32.347656 9.40625 32.769531 9.347656 33.191406 9.359375 Z M 32.027344 9.300781 C 32.09375 9.296875 32.15625 9.292969 32.21875 9.289062 C 32.078125 9.320312 31.941406 9.359375 31.804688 9.40625 C 31.585938 9.484375 31.371094 9.578125 31.148438 9.695312 C 31.097656 9.703125 31.050781 9.714844 31 9.722656 C 30.453125 9.835938 29.925781 10.039062 29.441406 10.339844 C 29.394531 10.371094 29.347656 10.398438 29.300781 10.433594 C 30.101562 9.8125 31.054688 9.421875 32.027344 9.300781 Z M 29.480469 10.515625 C 29.863281 10.269531 30.273438 10.082031 30.703125 9.957031 C 30.464844 10.109375 30.214844 10.289062 29.949219 10.5 C 29.652344 10.730469 29.308594 11.011719 28.960938 11.332031 C 28.417969 11.746094 27.917969 12.25 27.523438 12.859375 C 27.566406 12.742188 27.617188 12.621094 27.667969 12.507812 C 28.078125 11.707031 28.703125 11.011719 29.480469 10.515625 Z M 32.019531 21.371094 C 31.433594 21.363281 30.855469 21.253906 30.308594 21.042969 C 29.707031 20.8125 29.148438 20.46875 28.652344 20.03125 C 28.617188 19.996094 28.578125 19.964844 28.542969 19.929688 C 26.703125 18.191406 26.113281 15.34375 27.105469 13.003906 C 27.386719 12.347656 27.773438 11.75 28.242188 11.242188 C 27.925781 11.640625 27.660156 12.085938 27.457031 12.5625 C 27.359375 12.765625 27.277344 12.976562 27.210938 13.1875 C 27.15625 13.359375 27.113281 13.539062 27.078125 13.71875 C 26.96875 13.980469 26.882812 14.265625 26.8125 14.5625 C 26.289062 16.835938 27.589844 19.015625 29.308594 20.132812 C 29.6875 20.394531 30.097656 20.605469 30.523438 20.769531 C 30.84375 20.894531 31.183594 20.988281 31.527344 21.050781 C 31.640625 21.070312 31.753906 21.085938 31.871094 21.101562 C 32.730469 21.210938 33.621094 21.128906 34.457031 20.84375 C 33.6875 21.195312 32.851562 21.378906 32.019531 21.371094 Z M 35.828125 19.949219 C 35.71875 20.03125 35.601562 20.109375 35.488281 20.179688 C 34.832031 20.578125 34.089844 20.832031 33.328125 20.9375 C 33.4375 20.917969 33.546875 20.898438 33.65625 20.871094 C 34.117188 20.769531 34.554688 20.605469 34.960938 20.390625 C 35.59375 20.066406 36.164062 19.625 36.628906 19.078125 C 36.386719 19.398438 36.121094 19.691406 35.828125 19.949219 Z M 38.085938 16.652344 C 38.03125 16.863281 37.964844 17.070312 37.886719 17.277344 C 37.855469 17.351562 37.824219 17.425781 37.792969 17.503906 C 37.589844 17.960938 37.332031 18.394531 37.03125 18.785156 C 37.332031 18.304688 37.570312 17.769531 37.738281 17.207031 C 38.300781 15.3125 38.050781 12.789062 36.679688 11.054688 C 38.0625 12.527344 38.601562 14.6875 38.085938 16.652344 Z M 38.085938 16.652344 " fill-opacity="1" fill-rule="nonzero"/></g><g clip-path="url(#d8055d7111)"><path fill="#cf733a" d="M 37.910156 15.316406 C 37.910156 15.683594 37.875 16.046875 37.804688 16.40625 C 37.734375 16.765625 37.632812 17.113281 37.496094 17.453125 C 37.359375 17.792969 37.191406 18.113281 36.992188 18.417969 C 36.792969 18.722656 36.566406 19.003906 36.3125 19.261719 C 36.058594 19.523438 35.785156 19.753906 35.484375 19.957031 C 35.1875 20.160156 34.875 20.332031 34.542969 20.472656 C 34.210938 20.613281 33.871094 20.71875 33.519531 20.789062 C 33.167969 20.863281 32.8125 20.898438 32.457031 20.898438 C 32.097656 20.898438 31.742188 20.863281 31.390625 20.789062 C 31.039062 20.71875 30.699219 20.613281 30.367188 20.472656 C 30.039062 20.332031 29.722656 20.160156 29.425781 19.957031 C 29.128906 19.753906 28.851562 19.523438 28.597656 19.261719 C 28.347656 19.003906 28.121094 18.722656 27.921875 18.417969 C 27.722656 18.113281 27.554688 17.792969 27.417969 17.453125 C 27.28125 17.113281 27.175781 16.765625 27.105469 16.40625 C 27.035156 16.046875 27 15.683594 27 15.316406 C 27 14.949219 27.035156 14.585938 27.105469 14.226562 C 27.175781 13.867188 27.28125 13.519531 27.417969 13.179688 C 27.554688 12.84375 27.722656 12.523438 27.921875 12.21875 C 28.121094 11.914062 28.347656 11.628906 28.597656 11.371094 C 28.851562 11.113281 29.128906 10.878906 29.425781 10.675781 C 29.722656 10.472656 30.039062 10.300781 30.367188 10.160156 C 30.699219 10.019531 31.039062 9.914062 31.390625 9.84375 C 31.742188 9.773438 32.097656 9.738281 32.457031 9.738281 C 32.8125 9.738281 33.167969 9.773438 33.519531 9.84375 C 33.871094 9.914062 34.210938 10.019531 34.542969 10.160156 C 34.875 10.300781 35.1875 10.472656 35.484375 10.675781 C 35.785156 10.878906 36.058594 11.113281 36.3125 11.371094 C 36.566406 11.628906 36.792969 11.914062 36.992188 12.21875 C 37.191406 12.523438 37.359375 12.84375 37.496094 13.179688 C 37.632812 13.519531 37.734375 13.867188 37.804688 14.226562 C 37.875 14.585938 37.910156 14.949219 37.910156 15.316406 Z M 37.910156 15.316406 " fill-opacity="1" fill-rule="nonzero"/></g><g clip-path="url(#8ac650fb09)"><path fill="#c1ff72" d="M 20.351562 30.125 C 19.769531 28.46875 18.113281 27.292969 16.425781 27.332031 C 16.277344 27.332031 16.125 27.347656 15.976562 27.367188 C 15.273438 27.4375 14.5625 27.71875 13.953125 28.175781 C 13.238281 28.710938 12.679688 29.464844 12.386719 30.300781 C 12.078125 31.179688 12.0625 32.171875 12.339844 33.101562 C 12.582031 33.910156 13.03125 34.605469 13.613281 35.125 C 13.976562 35.449219 14.386719 35.703125 14.824219 35.867188 C 15.234375 36.023438 15.667969 36.109375 16.117188 36.109375 C 16.148438 36.109375 16.179688 36.109375 16.207031 36.105469 C 17.035156 36.085938 17.867188 35.800781 18.550781 35.300781 C 18.648438 35.230469 18.742188 35.15625 18.832031 35.074219 C 19.476562 34.605469 19.964844 33.953125 20.261719 33.222656 C 20.34375 33.023438 20.410156 32.820312 20.457031 32.613281 C 20.660156 31.804688 20.636719 30.933594 20.351562 30.125 Z M 18.777344 28.277344 C 19.429688 28.847656 19.894531 29.691406 20.085938 30.65625 C 20.160156 31.023438 20.191406 31.394531 20.179688 31.761719 C 20.171875 31.589844 20.152344 31.417969 20.117188 31.246094 C 19.9375 30.269531 19.460938 29.289062 18.8125 28.554688 C 18.453125 28.144531 18.046875 27.832031 17.609375 27.628906 C 18.027344 27.753906 18.425781 27.972656 18.777344 28.277344 Z M 12.460938 32.144531 C 12.480469 32.445312 12.535156 32.742188 12.621094 33.027344 C 12.40625 32.417969 12.371094 31.773438 12.515625 31.164062 C 12.515625 31.199219 12.511719 31.238281 12.511719 31.273438 C 12.460938 31.558594 12.445312 31.851562 12.460938 32.144531 Z M 12.585938 32.199219 C 12.820312 33.445312 13.59375 34.574219 14.691406 35.140625 C 16.140625 35.890625 18.050781 35.546875 19.132812 34.339844 C 19.675781 33.738281 20.007812 32.921875 20.070312 32.0625 C 20.027344 33.378906 19.234375 34.601562 18.070312 35.210938 C 17.636719 35.425781 17.164062 35.5625 16.679688 35.609375 C 15.738281 35.691406 14.804688 35.421875 14.046875 34.890625 C 13.222656 34.238281 12.671875 33.261719 12.585938 32.199219 Z M 15.785156 28.0625 C 16.039062 27.980469 16.308594 27.910156 16.589844 27.847656 C 17.074219 27.921875 17.550781 28.09375 17.988281 28.351562 C 19.230469 29.097656 20.027344 30.492188 19.957031 31.972656 C 19.910156 32.886719 19.542969 33.761719 18.949219 34.367188 C 18.410156 34.917969 17.667969 35.28125 16.859375 35.390625 C 16.003906 35.503906 15.148438 35.324219 14.457031 34.875 C 13.789062 34.441406 13.242188 33.761719 12.925781 32.964844 C 12.898438 32.890625 12.871094 32.816406 12.847656 32.742188 C 12.851562 32.75 12.851562 32.75 12.855469 32.757812 C 13.195312 33.503906 13.761719 34.113281 14.453125 34.460938 L 14.511719 34.484375 L 14.554688 34.386719 L 14.507812 34.363281 C 13.363281 33.78125 12.652344 32.527344 12.636719 31.261719 C 12.636719 31.25 12.636719 31.242188 12.640625 31.230469 C 12.777344 30.527344 13.128906 29.867188 13.675781 29.296875 C 13.785156 29.183594 13.902344 29.066406 14.03125 28.949219 C 14.105469 28.890625 14.183594 28.839844 14.261719 28.785156 C 14.292969 28.761719 14.328125 28.742188 14.359375 28.722656 C 14.832031 28.425781 15.332031 28.214844 15.785156 28.0625 Z M 14.652344 28.425781 C 14.691406 28.398438 14.730469 28.363281 14.769531 28.335938 C 15.035156 28.132812 15.277344 27.972656 15.511719 27.847656 C 15.753906 27.8125 16.003906 27.800781 16.253906 27.8125 C 16.097656 27.855469 15.933594 27.902344 15.761719 27.960938 C 15.355469 28.089844 14.988281 28.242188 14.652344 28.425781 Z M 16.886719 27.511719 C 17.6875 27.664062 18.445312 28.191406 19.027344 29.007812 C 19.109375 29.121094 19.183594 29.238281 19.257812 29.355469 C 19.195312 29.273438 19.132812 29.195312 19.066406 29.117188 C 18.765625 28.769531 18.417969 28.484375 18.042969 28.261719 C 17.6875 28.046875 17.300781 27.886719 16.890625 27.789062 C 16.882812 27.789062 16.878906 27.789062 16.871094 27.785156 L 16.890625 27.730469 L 16.835938 27.679688 L 16.808594 27.6875 C 16.738281 27.699219 16.664062 27.714844 16.585938 27.730469 C 16.332031 27.695312 16.078125 27.683594 15.828125 27.703125 C 15.886719 27.675781 15.945312 27.65625 16.007812 27.636719 C 16.289062 27.542969 16.589844 27.503906 16.886719 27.511719 Z M 16.066406 27.46875 C 16.113281 27.46875 16.15625 27.464844 16.203125 27.464844 C 16.101562 27.484375 16.003906 27.511719 15.910156 27.546875 C 15.757812 27.597656 15.605469 27.664062 15.445312 27.75 C 15.410156 27.753906 15.378906 27.761719 15.34375 27.769531 C 14.957031 27.847656 14.585938 27.992188 14.242188 28.203125 C 14.210938 28.226562 14.175781 28.246094 14.144531 28.269531 C 14.710938 27.832031 15.378906 27.554688 16.066406 27.46875 Z M 14.269531 28.328125 C 14.542969 28.152344 14.828125 28.023438 15.132812 27.933594 C 14.964844 28.039062 14.789062 28.167969 14.601562 28.316406 C 14.394531 28.480469 14.148438 28.675781 13.90625 28.902344 C 13.519531 29.195312 13.167969 29.550781 12.890625 29.984375 C 12.921875 29.898438 12.957031 29.816406 12.992188 29.734375 C 13.28125 29.167969 13.722656 28.679688 14.269531 28.328125 Z M 16.0625 35.992188 C 15.648438 35.988281 15.238281 35.90625 14.851562 35.761719 C 14.429688 35.597656 14.035156 35.351562 13.6875 35.046875 C 13.660156 35.019531 13.636719 34.996094 13.609375 34.972656 C 12.3125 33.746094 11.894531 31.734375 12.597656 30.085938 C 12.792969 29.621094 13.066406 29.199219 13.398438 28.839844 C 13.171875 29.121094 12.984375 29.433594 12.84375 29.773438 C 12.773438 29.917969 12.71875 30.066406 12.671875 30.214844 C 12.632812 30.335938 12.601562 30.460938 12.578125 30.589844 C 12.5 30.773438 12.4375 30.972656 12.390625 31.183594 C 12.023438 32.789062 12.9375 34.328125 14.148438 35.117188 C 14.417969 35.300781 14.707031 35.449219 15.003906 35.566406 C 15.234375 35.652344 15.46875 35.722656 15.714844 35.765625 C 15.792969 35.78125 15.875 35.789062 15.957031 35.800781 C 16.5625 35.878906 17.1875 35.820312 17.78125 35.617188 C 17.234375 35.867188 16.648438 35.996094 16.0625 35.992188 Z M 18.746094 34.988281 C 18.667969 35.046875 18.585938 35.097656 18.503906 35.148438 C 18.046875 35.429688 17.523438 35.609375 16.984375 35.683594 C 17.058594 35.671875 17.136719 35.65625 17.214844 35.636719 C 17.539062 35.566406 17.847656 35.449219 18.136719 35.296875 C 18.582031 35.070312 18.984375 34.757812 19.308594 34.371094 C 19.140625 34.597656 18.953125 34.804688 18.746094 34.988281 Z M 20.339844 32.660156 C 20.300781 32.808594 20.253906 32.957031 20.195312 33.101562 C 20.175781 33.152344 20.152344 33.207031 20.128906 33.261719 C 19.988281 33.585938 19.804688 33.890625 19.59375 34.164062 C 19.804688 33.824219 19.976562 33.449219 20.09375 33.050781 C 20.488281 31.714844 20.3125 29.933594 19.347656 28.707031 C 20.320312 29.746094 20.703125 31.273438 20.339844 32.660156 Z M 20.339844 32.660156 " fill-opacity="1" fill-rule="nonzero"/></g><g clip-path="url(#2e5f96106f)"><path fill="#c1ff72" d="M 20.214844 31.71875 C 20.214844 31.976562 20.1875 32.230469 20.140625 32.484375 C 20.089844 32.738281 20.019531 32.984375 19.921875 33.226562 C 19.824219 33.464844 19.707031 33.691406 19.566406 33.90625 C 19.425781 34.121094 19.265625 34.320312 19.085938 34.503906 C 18.910156 34.683594 18.714844 34.847656 18.503906 34.992188 C 18.296875 35.136719 18.074219 35.257812 17.839844 35.355469 C 17.605469 35.457031 17.367188 35.53125 17.117188 35.582031 C 16.871094 35.632812 16.621094 35.65625 16.367188 35.65625 C 16.117188 35.65625 15.867188 35.632812 15.617188 35.582031 C 15.371094 35.53125 15.128906 35.457031 14.898438 35.355469 C 14.664062 35.257812 14.441406 35.136719 14.230469 34.992188 C 14.023438 34.847656 13.828125 34.683594 13.648438 34.503906 C 13.472656 34.320312 13.3125 34.121094 13.171875 33.90625 C 13.03125 33.691406 12.914062 33.464844 12.816406 33.226562 C 12.71875 32.984375 12.644531 32.738281 12.597656 32.484375 C 12.546875 32.230469 12.523438 31.976562 12.523438 31.71875 C 12.523438 31.457031 12.546875 31.203125 12.597656 30.949219 C 12.644531 30.695312 12.71875 30.449219 12.816406 30.210938 C 12.914062 29.972656 13.03125 29.742188 13.171875 29.527344 C 13.3125 29.3125 13.472656 29.113281 13.648438 28.933594 C 13.828125 28.75 14.023438 28.585938 14.230469 28.441406 C 14.441406 28.296875 14.664062 28.175781 14.898438 28.078125 C 15.128906 27.980469 15.371094 27.90625 15.617188 27.855469 C 15.867188 27.804688 16.117188 27.777344 16.367188 27.777344 C 16.621094 27.777344 16.871094 27.804688 17.117188 27.855469 C 17.367188 27.90625 17.605469 27.980469 17.839844 28.078125 C 18.074219 28.175781 18.296875 28.296875 18.503906 28.441406 C 18.714844 28.585938 18.910156 28.75 19.085938 28.933594 C 19.265625 29.113281 19.425781 29.3125 19.566406 29.527344 C 19.707031 29.742188 19.824219 29.972656 19.921875 30.210938 C 20.019531 30.449219 20.089844 30.695312 20.140625 30.949219 C 20.1875 31.203125 20.214844 31.457031 20.214844 31.71875 Z M 20.214844 31.71875 " fill-opacity="1" fill-rule="nonzero"/></g><g clip-path="url(#5d2f755629)"><path fill="#0097b2" d="M 11.421875 37.671875 C 11.132812 36.84375 10.304688 36.253906 9.460938 36.273438 C 9.386719 36.277344 9.3125 36.28125 9.238281 36.292969 C 8.886719 36.328125 8.53125 36.46875 8.226562 36.695312 C 7.867188 36.964844 7.589844 37.339844 7.441406 37.761719 C 7.289062 38.199219 7.28125 38.695312 7.417969 39.160156 C 7.539062 39.566406 7.765625 39.914062 8.054688 40.171875 C 8.238281 40.335938 8.441406 40.460938 8.660156 40.542969 C 8.867188 40.621094 9.082031 40.664062 9.304688 40.664062 C 9.320312 40.664062 9.335938 40.664062 9.351562 40.664062 C 9.765625 40.652344 10.183594 40.507812 10.523438 40.257812 C 10.570312 40.222656 10.617188 40.1875 10.664062 40.144531 C 10.984375 39.910156 11.230469 39.585938 11.378906 39.21875 C 11.417969 39.121094 11.449219 39.019531 11.476562 38.914062 C 11.578125 38.511719 11.566406 38.074219 11.421875 37.671875 Z M 10.636719 36.746094 C 10.960938 37.03125 11.195312 37.453125 11.289062 37.9375 C 11.328125 38.121094 11.34375 38.308594 11.335938 38.488281 C 11.332031 38.402344 11.320312 38.316406 11.304688 38.230469 C 11.214844 37.742188 10.976562 37.253906 10.65625 36.886719 C 10.472656 36.679688 10.269531 36.523438 10.050781 36.421875 C 10.261719 36.484375 10.460938 36.59375 10.636719 36.746094 Z M 7.480469 38.679688 C 7.488281 38.832031 7.515625 38.980469 7.558594 39.125 C 7.453125 38.820312 7.433594 38.496094 7.507812 38.191406 C 7.507812 38.210938 7.503906 38.226562 7.503906 38.246094 C 7.480469 38.390625 7.472656 38.535156 7.480469 38.679688 Z M 7.542969 38.710938 C 7.660156 39.332031 8.046875 39.894531 8.59375 40.179688 C 9.316406 40.554688 10.273438 40.382812 10.8125 39.78125 C 11.085938 39.476562 11.25 39.070312 11.28125 38.640625 C 11.261719 39.296875 10.863281 39.910156 10.28125 40.214844 C 10.066406 40.324219 9.832031 40.390625 9.589844 40.414062 C 9.117188 40.457031 8.648438 40.320312 8.273438 40.054688 C 7.859375 39.730469 7.585938 39.238281 7.542969 38.710938 Z M 9.140625 36.640625 C 9.265625 36.601562 9.402344 36.5625 9.542969 36.535156 C 9.785156 36.570312 10.023438 36.65625 10.242188 36.785156 C 10.863281 37.15625 11.261719 37.855469 11.226562 38.59375 C 11.203125 39.054688 11.019531 39.488281 10.722656 39.792969 C 10.453125 40.066406 10.082031 40.25 9.679688 40.304688 C 9.25 40.363281 8.824219 40.269531 8.476562 40.046875 C 8.144531 39.828125 7.871094 39.492188 7.714844 39.089844 C 7.699219 39.054688 7.683594 39.019531 7.671875 38.980469 C 7.675781 38.984375 7.675781 38.984375 7.675781 38.988281 C 7.847656 39.363281 8.128906 39.664062 8.476562 39.839844 L 8.503906 39.851562 L 8.523438 39.800781 L 8.5 39.789062 C 7.929688 39.5 7.574219 38.871094 7.566406 38.238281 C 7.566406 38.234375 7.566406 38.230469 7.570312 38.226562 C 7.636719 37.875 7.8125 37.542969 8.085938 37.257812 C 8.140625 37.199219 8.199219 37.140625 8.265625 37.082031 C 8.300781 37.054688 8.339844 37.027344 8.378906 37 C 8.394531 36.992188 8.414062 36.980469 8.429688 36.96875 C 8.664062 36.820312 8.914062 36.714844 9.140625 36.640625 Z M 8.574219 36.824219 C 8.59375 36.808594 8.613281 36.792969 8.632812 36.777344 C 8.765625 36.675781 8.886719 36.59375 9.003906 36.535156 C 9.125 36.515625 9.25 36.507812 9.375 36.515625 C 9.296875 36.535156 9.214844 36.558594 9.128906 36.589844 C 8.925781 36.652344 8.742188 36.730469 8.574219 36.824219 Z M 9.691406 36.367188 C 10.089844 36.441406 10.46875 36.703125 10.761719 37.113281 C 10.800781 37.167969 10.839844 37.226562 10.875 37.285156 C 10.84375 37.246094 10.8125 37.207031 10.78125 37.167969 C 10.628906 36.996094 10.457031 36.851562 10.269531 36.738281 C 10.09375 36.632812 9.898438 36.554688 9.691406 36.503906 C 9.6875 36.503906 9.6875 36.503906 9.683594 36.5 L 9.691406 36.476562 L 9.667969 36.449219 L 9.652344 36.453125 C 9.617188 36.460938 9.582031 36.464844 9.542969 36.476562 C 9.414062 36.457031 9.285156 36.449219 9.160156 36.460938 C 9.191406 36.449219 9.222656 36.4375 9.25 36.425781 C 9.394531 36.382812 9.542969 36.359375 9.691406 36.367188 Z M 9.28125 36.34375 C 9.304688 36.34375 9.324219 36.339844 9.347656 36.339844 C 9.300781 36.351562 9.25 36.367188 9.203125 36.382812 C 9.125 36.410156 9.050781 36.441406 8.972656 36.484375 C 8.953125 36.484375 8.9375 36.488281 8.917969 36.492188 C 8.726562 36.53125 8.542969 36.605469 8.371094 36.710938 C 8.355469 36.722656 8.335938 36.730469 8.320312 36.742188 C 8.601562 36.523438 8.9375 36.386719 9.28125 36.34375 Z M 8.382812 36.773438 C 8.519531 36.6875 8.664062 36.621094 8.8125 36.574219 C 8.730469 36.628906 8.644531 36.691406 8.550781 36.765625 C 8.445312 36.847656 8.324219 36.949219 8.203125 37.0625 C 8.007812 37.207031 7.832031 37.382812 7.695312 37.601562 C 7.710938 37.558594 7.726562 37.515625 7.746094 37.476562 C 7.890625 37.191406 8.109375 36.949219 8.382812 36.773438 Z M 9.277344 40.605469 C 9.070312 40.601562 8.867188 40.5625 8.675781 40.488281 C 8.464844 40.40625 8.265625 40.285156 8.09375 40.132812 C 8.078125 40.121094 8.066406 40.109375 8.054688 40.09375 C 7.40625 39.480469 7.199219 38.476562 7.546875 37.652344 C 7.644531 37.417969 7.785156 37.207031 7.949219 37.027344 C 7.835938 37.167969 7.742188 37.328125 7.671875 37.496094 C 7.636719 37.566406 7.609375 37.640625 7.585938 37.714844 C 7.566406 37.777344 7.550781 37.839844 7.539062 37.902344 C 7.5 37.996094 7.46875 38.097656 7.445312 38.199219 C 7.261719 39.003906 7.71875 39.773438 8.324219 40.167969 C 8.457031 40.257812 8.601562 40.335938 8.75 40.390625 C 8.863281 40.4375 8.984375 40.46875 9.105469 40.492188 C 9.144531 40.5 9.183594 40.503906 9.226562 40.507812 C 9.53125 40.546875 9.84375 40.519531 10.136719 40.417969 C 9.867188 40.542969 9.570312 40.609375 9.277344 40.605469 Z M 10.621094 40.101562 C 10.582031 40.132812 10.539062 40.160156 10.5 40.183594 C 10.269531 40.324219 10.007812 40.414062 9.738281 40.449219 C 9.777344 40.445312 9.816406 40.4375 9.855469 40.429688 C 10.015625 40.390625 10.171875 40.332031 10.316406 40.257812 C 10.539062 40.144531 10.738281 39.988281 10.902344 39.792969 C 10.816406 39.90625 10.722656 40.011719 10.621094 40.101562 Z M 11.414062 38.9375 C 11.394531 39.011719 11.371094 39.085938 11.34375 39.160156 C 11.335938 39.1875 11.324219 39.210938 11.3125 39.238281 C 11.242188 39.402344 11.148438 39.554688 11.042969 39.691406 C 11.148438 39.519531 11.234375 39.332031 11.292969 39.136719 C 11.492188 38.464844 11.402344 37.574219 10.921875 36.960938 C 11.40625 37.484375 11.597656 38.246094 11.414062 38.9375 Z M 11.414062 38.9375 " fill-opacity="1" fill-rule="nonzero"/><path fill="#0097b2" d="M 11.355469 38.46875 C 11.355469 38.730469 11.304688 38.980469 11.207031 39.222656 C 11.109375 39.460938 10.972656 39.675781 10.789062 39.859375 C 10.609375 40.046875 10.402344 40.1875 10.167969 40.289062 C 9.933594 40.386719 9.6875 40.4375 9.433594 40.4375 C 9.175781 40.4375 8.933594 40.386719 8.695312 40.289062 C 8.460938 40.1875 8.253906 40.046875 8.074219 39.859375 C 7.894531 39.675781 7.753906 39.460938 7.65625 39.222656 C 7.558594 38.980469 7.511719 38.730469 7.511719 38.46875 C 7.511719 38.207031 7.558594 37.957031 7.65625 37.714844 C 7.753906 37.472656 7.894531 37.257812 8.074219 37.074219 C 8.253906 36.890625 8.460938 36.746094 8.695312 36.648438 C 8.933594 36.546875 9.175781 36.5 9.433594 36.5 C 9.6875 36.5 9.933594 36.546875 10.167969 36.648438 C 10.402344 36.746094 10.609375 36.890625 10.789062 37.074219 C 10.972656 37.257812 11.109375 37.472656 11.207031 37.714844 C 11.304688 37.957031 11.355469 38.207031 11.355469 38.46875 Z M 11.355469 38.46875 " fill-opacity="1" fill-rule="nonzero"/></g><g clip-path="url(#65f839c397)"><path fill="#ffbd59" d="M 38.554688 7.691406 C 38.410156 7.28125 37.996094 6.988281 37.574219 6.996094 C 37.535156 6.996094 37.5 7 37.460938 7.007812 C 37.285156 7.023438 37.105469 7.09375 36.953125 7.207031 C 36.773438 7.339844 36.636719 7.527344 36.5625 7.738281 C 36.484375 7.957031 36.480469 8.203125 36.550781 8.433594 C 36.613281 8.636719 36.722656 8.808594 36.871094 8.9375 C 36.960938 9.019531 37.0625 9.082031 37.171875 9.125 C 37.273438 9.164062 37.382812 9.183594 37.496094 9.183594 C 37.503906 9.183594 37.511719 9.183594 37.519531 9.183594 C 37.726562 9.179688 37.933594 9.105469 38.105469 8.984375 C 38.128906 8.964844 38.152344 8.945312 38.175781 8.925781 C 38.335938 8.808594 38.460938 8.648438 38.535156 8.464844 C 38.554688 8.414062 38.570312 8.363281 38.582031 8.3125 C 38.632812 8.113281 38.628906 7.894531 38.554688 7.691406 Z M 38.164062 7.234375 C 38.324219 7.375 38.441406 7.585938 38.488281 7.824219 C 38.507812 7.917969 38.515625 8.011719 38.511719 8.101562 C 38.511719 8.058594 38.507812 8.015625 38.496094 7.972656 C 38.453125 7.730469 38.332031 7.484375 38.171875 7.300781 C 38.082031 7.199219 37.980469 7.121094 37.871094 7.070312 C 37.972656 7.101562 38.074219 7.15625 38.164062 7.234375 Z M 36.582031 8.195312 C 36.585938 8.273438 36.597656 8.347656 36.621094 8.417969 C 36.566406 8.265625 36.558594 8.105469 36.59375 7.953125 C 36.59375 7.960938 36.59375 7.96875 36.59375 7.980469 C 36.582031 8.050781 36.578125 8.125 36.582031 8.195312 Z M 36.613281 8.210938 C 36.671875 8.519531 36.863281 8.800781 37.140625 8.945312 C 37.5 9.128906 37.980469 9.042969 38.25 8.746094 C 38.386719 8.59375 38.46875 8.390625 38.484375 8.175781 C 38.476562 8.503906 38.277344 8.808594 37.984375 8.960938 C 37.875 9.015625 37.757812 9.046875 37.636719 9.0625 C 37.402344 9.082031 37.167969 9.011719 36.976562 8.882812 C 36.773438 8.71875 36.632812 8.476562 36.613281 8.210938 Z M 37.414062 7.179688 C 37.476562 7.160156 37.542969 7.140625 37.613281 7.125 C 37.734375 7.144531 37.855469 7.1875 37.964844 7.25 C 38.277344 7.4375 38.476562 7.785156 38.457031 8.152344 C 38.445312 8.382812 38.355469 8.601562 38.207031 8.75 C 38.070312 8.886719 37.882812 8.976562 37.683594 9.003906 C 37.46875 9.035156 37.253906 8.988281 37.082031 8.878906 C 36.914062 8.769531 36.777344 8.601562 36.699219 8.402344 C 36.691406 8.382812 36.683594 8.363281 36.679688 8.347656 C 36.765625 8.535156 36.90625 8.6875 37.082031 8.773438 L 37.09375 8.78125 L 37.105469 8.753906 L 37.09375 8.75 C 36.808594 8.605469 36.628906 8.292969 36.625 7.976562 C 36.625 7.972656 36.625 7.972656 36.625 7.96875 C 36.660156 7.792969 36.75 7.628906 36.886719 7.488281 C 36.914062 7.457031 36.941406 7.429688 36.972656 7.398438 C 36.992188 7.386719 37.011719 7.371094 37.03125 7.359375 C 37.039062 7.355469 37.046875 7.347656 37.054688 7.34375 C 37.175781 7.269531 37.300781 7.21875 37.414062 7.179688 Z M 37.128906 7.269531 C 37.140625 7.261719 37.148438 7.253906 37.160156 7.246094 C 37.226562 7.195312 37.285156 7.15625 37.34375 7.125 C 37.40625 7.117188 37.46875 7.113281 37.53125 7.117188 C 37.492188 7.128906 37.449219 7.140625 37.40625 7.152344 C 37.304688 7.1875 37.214844 7.222656 37.128906 7.269531 Z M 37.6875 7.042969 C 37.890625 7.078125 38.078125 7.210938 38.222656 7.414062 C 38.246094 7.445312 38.265625 7.472656 38.28125 7.5 C 38.265625 7.480469 38.25 7.460938 38.234375 7.441406 C 38.160156 7.355469 38.070312 7.285156 37.976562 7.230469 C 37.890625 7.175781 37.792969 7.136719 37.6875 7.113281 C 37.6875 7.109375 37.6875 7.109375 37.683594 7.109375 L 37.6875 7.097656 L 37.675781 7.085938 L 37.667969 7.085938 C 37.652344 7.089844 37.632812 7.09375 37.613281 7.097656 C 37.550781 7.085938 37.484375 7.085938 37.421875 7.089844 C 37.4375 7.082031 37.453125 7.078125 37.46875 7.074219 C 37.539062 7.050781 37.613281 7.039062 37.6875 7.042969 Z M 37.484375 7.03125 C 37.496094 7.03125 37.507812 7.03125 37.515625 7.03125 C 37.492188 7.035156 37.46875 7.042969 37.445312 7.050781 C 37.40625 7.0625 37.367188 7.082031 37.328125 7.101562 C 37.320312 7.101562 37.3125 7.105469 37.300781 7.105469 C 37.207031 7.125 37.113281 7.160156 37.027344 7.214844 C 37.019531 7.21875 37.011719 7.226562 37.003906 7.230469 C 37.144531 7.121094 37.3125 7.054688 37.484375 7.03125 Z M 37.035156 7.246094 C 37.101562 7.203125 37.175781 7.167969 37.25 7.148438 C 37.207031 7.175781 37.164062 7.207031 37.117188 7.242188 C 37.066406 7.285156 37.003906 7.332031 36.941406 7.390625 C 36.847656 7.460938 36.757812 7.550781 36.6875 7.65625 C 36.695312 7.636719 36.707031 7.617188 36.714844 7.597656 C 36.785156 7.453125 36.898438 7.332031 37.035156 7.246094 Z M 37.480469 9.15625 C 37.378906 9.152344 37.277344 9.132812 37.179688 9.097656 C 37.074219 9.058594 36.976562 8.996094 36.886719 8.917969 C 36.882812 8.914062 36.875 8.90625 36.867188 8.902344 C 36.542969 8.59375 36.441406 8.09375 36.613281 7.683594 C 36.664062 7.566406 36.734375 7.460938 36.816406 7.375 C 36.757812 7.445312 36.710938 7.523438 36.675781 7.605469 C 36.660156 7.640625 36.644531 7.679688 36.632812 7.714844 C 36.625 7.746094 36.617188 7.777344 36.609375 7.808594 C 36.589844 7.855469 36.574219 7.90625 36.5625 7.957031 C 36.472656 8.359375 36.699219 8.742188 37.003906 8.9375 C 37.070312 8.984375 37.144531 9.019531 37.21875 9.050781 C 37.273438 9.070312 37.335938 9.089844 37.394531 9.097656 C 37.414062 9.101562 37.4375 9.105469 37.457031 9.109375 C 37.609375 9.125 37.765625 9.113281 37.914062 9.0625 C 37.777344 9.125 37.628906 9.15625 37.480469 9.15625 Z M 38.15625 8.90625 C 38.132812 8.917969 38.113281 8.933594 38.09375 8.945312 C 37.980469 9.015625 37.847656 9.058594 37.710938 9.078125 C 37.730469 9.074219 37.75 9.070312 37.769531 9.066406 C 37.851562 9.050781 37.929688 9.019531 38 8.984375 C 38.113281 8.925781 38.214844 8.847656 38.296875 8.75 C 38.253906 8.808594 38.207031 8.859375 38.15625 8.90625 Z M 38.554688 8.324219 C 38.542969 8.363281 38.53125 8.398438 38.515625 8.433594 C 38.511719 8.449219 38.507812 8.460938 38.5 8.476562 C 38.464844 8.554688 38.417969 8.632812 38.367188 8.699219 C 38.417969 8.617188 38.460938 8.523438 38.492188 8.421875 C 38.589844 8.089844 38.546875 7.644531 38.304688 7.339844 C 38.546875 7.597656 38.644531 7.980469 38.554688 8.324219 Z M 38.554688 8.324219 " fill-opacity="1" fill-rule="nonzero"/></g><g clip-path="url(#d9c7c70ae7)"><path fill="#ffbd59" d="M 38.523438 8.089844 C 38.523438 8.21875 38.496094 8.34375 38.449219 8.464844 C 38.398438 8.585938 38.328125 8.691406 38.238281 8.785156 C 38.148438 8.875 38.046875 8.949219 37.925781 8.996094 C 37.808594 9.046875 37.6875 9.070312 37.558594 9.070312 C 37.429688 9.070312 37.308594 9.046875 37.191406 8.996094 C 37.074219 8.949219 36.96875 8.875 36.878906 8.785156 C 36.789062 8.691406 36.71875 8.585938 36.671875 8.464844 C 36.621094 8.34375 36.597656 8.21875 36.597656 8.089844 C 36.597656 7.960938 36.621094 7.835938 36.671875 7.714844 C 36.71875 7.59375 36.789062 7.488281 36.878906 7.394531 C 36.96875 7.304688 37.074219 7.234375 37.191406 7.183594 C 37.308594 7.132812 37.429688 7.109375 37.558594 7.109375 C 37.6875 7.109375 37.808594 7.132812 37.925781 7.183594 C 38.046875 7.234375 38.148438 7.304688 38.238281 7.394531 C 38.328125 7.488281 38.398438 7.59375 38.449219 7.714844 C 38.496094 7.835938 38.523438 7.960938 38.523438 8.089844 Z M 38.523438 8.089844 " fill-opacity="1" fill-rule="nonzero"/></g></svg>